<svg width="440" height="221" viewBox="0 0 440 221" fill="none" xmlns="http://www.w3.org/2000/svg">
<g clip-path="url(#clip0)">
<rect width="440" height="221" fill="white"/>
<line x1="22.15" y1="9" x2="22.15" y2="193" stroke="#08B6F0" stroke-opacity="0.3" stroke-width="0.3"/>
<line x1="27.15" y1="9" x2="27.15" y2="193" stroke="#08B6F0" stroke-opacity="0.3" stroke-width="0.3"/>
<line x1="32.15" y1="9" x2="32.15" y2="193" stroke="#08B6F0" stroke-opacity="0.3" stroke-width="0.3"/>
<line x1="37.15" y1="9" x2="37.15" y2="193" stroke="#08B6F0" stroke-opacity="0.3" stroke-width="0.3"/>
<line x1="42.15" y1="9" x2="42.15" y2="193" stroke="#08B6F0" stroke-opacity="0.3" stroke-width="0.3"/>
<line x1="137.15" y1="9" x2="137.15" y2="193" stroke="#08B6F0" stroke-opacity="0.3" stroke-width="0.3"/>
<line x1="177.15" y1="9" x2="177.15" y2="193" stroke="#08B6F0" stroke-opacity="0.3" stroke-width="0.3"/>
<line x1="197.15" y1="9" x2="197.15" y2="193" stroke="#08B6F0" stroke-opacity="0.3" stroke-width="0.3"/>
<line x1="192.15" y1="9" x2="192.15" y2="193" stroke="#08B6F0" stroke-opacity="0.3" stroke-width="0.3"/>
<line x1="187.15" y1="9" x2="187.15" y2="193" stroke="#08B6F0" stroke-opacity="0.3" stroke-width="0.3"/>
<line x1="182.15" y1="9" x2="182.15" y2="193" stroke="#08B6F0" stroke-opacity="0.3" stroke-width="0.3"/>
<line x1="172.15" y1="9" x2="172.15" y2="193" stroke="#08B6F0" stroke-opacity="0.3" stroke-width="0.3"/>
<line x1="167.15" y1="9" x2="167.15" y2="193" stroke="#08B6F0" stroke-opacity="0.3" stroke-width="0.3"/>
<line x1="162.15" y1="9" x2="162.15" y2="193" stroke="#08B6F0" stroke-opacity="0.3" stroke-width="0.3"/>
<line x1="157.15" y1="9" x2="157.15" y2="193" stroke="#08B6F0" stroke-opacity="0.3" stroke-width="0.3"/>
<line x1="152.15" y1="9" x2="152.15" y2="193" stroke="#08B6F0" stroke-opacity="0.3" stroke-width="0.3"/>
<line x1="147.15" y1="9" x2="147.15" y2="193" stroke="#08B6F0" stroke-opacity="0.3" stroke-width="0.3"/>
<line x1="142.15" y1="9" x2="142.15" y2="193" stroke="#08B6F0" stroke-opacity="0.3" stroke-width="0.3"/>
<line x1="132.15" y1="9" x2="132.15" y2="193" stroke="#08B6F0" stroke-opacity="0.3" stroke-width="0.3"/>
<line x1="127.15" y1="9" x2="127.15" y2="193" stroke="#08B6F0" stroke-opacity="0.3" stroke-width="0.3"/>
<line x1="122.15" y1="9" x2="122.15" y2="193" stroke="#08B6F0" stroke-opacity="0.3" stroke-width="0.3"/>
<line x1="117.15" y1="9" x2="117.15" y2="193" stroke="#08B6F0" stroke-opacity="0.3" stroke-width="0.3"/>
<line x1="112.15" y1="9" x2="112.15" y2="193" stroke="#08B6F0" stroke-opacity="0.3" stroke-width="0.3"/>
<line x1="107.15" y1="9" x2="107.15" y2="193" stroke="#08B6F0" stroke-opacity="0.3" stroke-width="0.3"/>
<line x1="102.15" y1="9" x2="102.15" y2="193" stroke="#08B6F0" stroke-opacity="0.3" stroke-width="0.3"/>
<line x1="97.15" y1="9" x2="97.15" y2="193" stroke="#08B6F0" stroke-opacity="0.3" stroke-width="0.3"/>
<line x1="92.15" y1="9" x2="92.15" y2="193" stroke="#08B6F0" stroke-opacity="0.3" stroke-width="0.3"/>
<line x1="87.15" y1="9" x2="87.15" y2="193" stroke="#08B6F0" stroke-opacity="0.3" stroke-width="0.3"/>
<line x1="82.15" y1="9" x2="82.15" y2="193" stroke="#08B6F0" stroke-opacity="0.3" stroke-width="0.3"/>
<line x1="77.15" y1="9" x2="77.15" y2="193" stroke="#08B6F0" stroke-opacity="0.3" stroke-width="0.3"/>
<line x1="72.15" y1="9" x2="72.15" y2="193" stroke="#08B6F0" stroke-opacity="0.3" stroke-width="0.3"/>
<line x1="67.15" y1="9" x2="67.15" y2="193" stroke="#08B6F0" stroke-opacity="0.3" stroke-width="0.3"/>
<line x1="62.15" y1="9" x2="62.15" y2="193" stroke="#08B6F0" stroke-opacity="0.3" stroke-width="0.3"/>
<line x1="57.15" y1="9" x2="57.15" y2="193" stroke="#08B6F0" stroke-opacity="0.3" stroke-width="0.3"/>
<line x1="52.15" y1="9" x2="52.15" y2="193" stroke="#08B6F0" stroke-opacity="0.3" stroke-width="0.3"/>
<line x1="47.15" y1="9" x2="47.15" y2="193" stroke="#08B6F0" stroke-opacity="0.3" stroke-width="0.3"/>
<line x1="17" y1="13.85" x2="202" y2="13.85" stroke="#08B6F0" stroke-opacity="0.3" stroke-width="0.3"/>
<line x1="17" y1="18.85" x2="202" y2="18.85" stroke="#08B6F0" stroke-opacity="0.3" stroke-width="0.3"/>
<line x1="17" y1="43.85" x2="202" y2="43.85" stroke="#08B6F0" stroke-opacity="0.3" stroke-width="0.3"/>
<line x1="17" y1="68.85" x2="202" y2="68.85" stroke="#08B6F0" stroke-opacity="0.3" stroke-width="0.3"/>
<line x1="17" y1="83.85" x2="202" y2="83.85" stroke="#08B6F0" stroke-opacity="0.3" stroke-width="0.3"/>
<line x1="17" y1="108.85" x2="202" y2="108.85" stroke="#08B6F0" stroke-opacity="0.3" stroke-width="0.3"/>
<line x1="17" y1="123.85" x2="202" y2="123.85" stroke="#08B6F0" stroke-opacity="0.3" stroke-width="0.3"/>
<line x1="17" y1="148.85" x2="202" y2="148.85" stroke="#08B6F0" stroke-opacity="0.3" stroke-width="0.3"/>
<line x1="17" y1="173.85" x2="202" y2="173.85" stroke="#08B6F0" stroke-opacity="0.3" stroke-width="0.3"/>
<line x1="17" y1="178.85" x2="202" y2="178.85" stroke="#08B6F0" stroke-opacity="0.3" stroke-width="0.3"/>
<line x1="17" y1="183.85" x2="202" y2="183.85" stroke="#08B6F0" stroke-opacity="0.3" stroke-width="0.3"/>
<line x1="17" y1="188.85" x2="202" y2="188.85" stroke="#08B6F0" stroke-opacity="0.3" stroke-width="0.3"/>
<line x1="17" y1="168.85" x2="202" y2="168.85" stroke="#08B6F0" stroke-opacity="0.3" stroke-width="0.3"/>
<line x1="17" y1="153.85" x2="202" y2="153.85" stroke="#08B6F0" stroke-opacity="0.3" stroke-width="0.3"/>
<line x1="17" y1="158.85" x2="202" y2="158.85" stroke="#08B6F0" stroke-opacity="0.3" stroke-width="0.3"/>
<line x1="17" y1="163.85" x2="202" y2="163.85" stroke="#08B6F0" stroke-opacity="0.3" stroke-width="0.3"/>
<line x1="17" y1="143.85" x2="202" y2="143.85" stroke="#08B6F0" stroke-opacity="0.3" stroke-width="0.3"/>
<line x1="17" y1="138.85" x2="202" y2="138.85" stroke="#08B6F0" stroke-opacity="0.3" stroke-width="0.3"/>
<line x1="17" y1="133.85" x2="202" y2="133.85" stroke="#08B6F0" stroke-opacity="0.3" stroke-width="0.3"/>
<line x1="17" y1="128.85" x2="202" y2="128.85" stroke="#08B6F0" stroke-opacity="0.3" stroke-width="0.3"/>
<line x1="17" y1="118.85" x2="202" y2="118.85" stroke="#08B6F0" stroke-opacity="0.3" stroke-width="0.3"/>
<line x1="17" y1="113.85" x2="202" y2="113.85" stroke="#08B6F0" stroke-opacity="0.3" stroke-width="0.3"/>
<line x1="17" y1="103.85" x2="202" y2="103.85" stroke="#08B6F0" stroke-opacity="0.3" stroke-width="0.3"/>
<line x1="17" y1="98.85" x2="202" y2="98.85" stroke="#08B6F0" stroke-opacity="0.3" stroke-width="0.3"/>
<line x1="17" y1="93.85" x2="202" y2="93.85" stroke="#08B6F0" stroke-opacity="0.3" stroke-width="0.3"/>
<line x1="17" y1="88.85" x2="202" y2="88.85" stroke="#08B6F0" stroke-opacity="0.3" stroke-width="0.3"/>
<line x1="17" y1="78.85" x2="202" y2="78.85" stroke="#08B6F0" stroke-opacity="0.3" stroke-width="0.3"/>
<line x1="17" y1="73.85" x2="202" y2="73.85" stroke="#08B6F0" stroke-opacity="0.3" stroke-width="0.3"/>
<line x1="17" y1="63.85" x2="202" y2="63.85" stroke="#08B6F0" stroke-opacity="0.3" stroke-width="0.3"/>
<line x1="17" y1="58.85" x2="202" y2="58.85" stroke="#08B6F0" stroke-opacity="0.3" stroke-width="0.3"/>
<line x1="17" y1="53.85" x2="202" y2="53.85" stroke="#08B6F0" stroke-opacity="0.3" stroke-width="0.3"/>
<line x1="17" y1="48.85" x2="202" y2="48.85" stroke="#08B6F0" stroke-opacity="0.3" stroke-width="0.3"/>
<line x1="16" y1="38.85" x2="202" y2="38.85" stroke="#08B6F0" stroke-opacity="0.3" stroke-width="0.3"/>
<line x1="16" y1="33.85" x2="202" y2="33.85" stroke="#08B6F0" stroke-opacity="0.3" stroke-width="0.3"/>
<line x1="16" y1="28.85" x2="202" y2="28.85" stroke="#08B6F0" stroke-opacity="0.3" stroke-width="0.3"/>
<line x1="16" y1="23.85" x2="202" y2="23.85" stroke="#08B6F0" stroke-opacity="0.3" stroke-width="0.3"/>
<line x1="207.15" y1="9" x2="207.15" y2="193" stroke="#08B6F0" stroke-opacity="0.3" stroke-width="0.3"/>
<line x1="202.15" y1="9" x2="202.15" y2="193" stroke="#08B6F0" stroke-opacity="0.3" stroke-width="0.3"/>
<line x1="212.15" y1="9" x2="212.15" y2="193" stroke="#08B6F0" stroke-opacity="0.3" stroke-width="0.3"/>
<line x1="217.15" y1="9" x2="217.15" y2="193" stroke="#08B6F0" stroke-opacity="0.3" stroke-width="0.3"/>
<line x1="222.15" y1="9" x2="222.15" y2="193" stroke="#08B6F0" stroke-opacity="0.3" stroke-width="0.3"/>
<line x1="227.15" y1="9" x2="227.15" y2="193" stroke="#08B6F0" stroke-opacity="0.3" stroke-width="0.3"/>
<line x1="322.15" y1="9" x2="322.15" y2="193" stroke="#08B6F0" stroke-opacity="0.3" stroke-width="0.3"/>
<line x1="362.15" y1="9" x2="362.15" y2="193" stroke="#08B6F0" stroke-opacity="0.3" stroke-width="0.3"/>
<line x1="382.15" y1="9" x2="382.15" y2="193" stroke="#08B6F0" stroke-opacity="0.3" stroke-width="0.3"/>
<line x1="377.15" y1="9" x2="377.15" y2="193" stroke="#08B6F0" stroke-opacity="0.3" stroke-width="0.3"/>
<line x1="372.15" y1="9" x2="372.15" y2="193" stroke="#08B6F0" stroke-opacity="0.3" stroke-width="0.3"/>
<line x1="367.15" y1="9" x2="367.15" y2="193" stroke="#08B6F0" stroke-opacity="0.3" stroke-width="0.3"/>
<line x1="357.15" y1="9" x2="357.15" y2="193" stroke="#08B6F0" stroke-opacity="0.3" stroke-width="0.3"/>
<line x1="352.15" y1="9" x2="352.15" y2="193" stroke="#08B6F0" stroke-opacity="0.3" stroke-width="0.3"/>
<line x1="347.15" y1="9" x2="347.15" y2="193" stroke="#08B6F0" stroke-opacity="0.3" stroke-width="0.3"/>
<line x1="342.15" y1="9" x2="342.15" y2="193" stroke="#08B6F0" stroke-opacity="0.3" stroke-width="0.3"/>
<line x1="337.15" y1="9" x2="337.15" y2="193" stroke="#08B6F0" stroke-opacity="0.3" stroke-width="0.3"/>
<line x1="332.15" y1="9" x2="332.15" y2="193" stroke="#08B6F0" stroke-opacity="0.3" stroke-width="0.3"/>
<line x1="327.15" y1="9" x2="327.15" y2="193" stroke="#08B6F0" stroke-opacity="0.3" stroke-width="0.3"/>
<line x1="317.15" y1="9" x2="317.15" y2="193" stroke="#08B6F0" stroke-opacity="0.3" stroke-width="0.3"/>
<line x1="312.15" y1="9" x2="312.15" y2="193" stroke="#08B6F0" stroke-opacity="0.3" stroke-width="0.3"/>
<line x1="307.15" y1="9" x2="307.15" y2="193" stroke="#08B6F0" stroke-opacity="0.3" stroke-width="0.3"/>
<line x1="302.15" y1="9" x2="302.15" y2="193" stroke="#08B6F0" stroke-opacity="0.3" stroke-width="0.3"/>
<line x1="297.15" y1="9" x2="297.15" y2="193" stroke="#08B6F0" stroke-opacity="0.3" stroke-width="0.3"/>
<line x1="292.15" y1="9" x2="292.15" y2="193" stroke="#08B6F0" stroke-opacity="0.3" stroke-width="0.3"/>
<line x1="287.15" y1="9" x2="287.15" y2="193" stroke="#08B6F0" stroke-opacity="0.3" stroke-width="0.3"/>
<line x1="282.15" y1="9" x2="282.15" y2="193" stroke="#08B6F0" stroke-opacity="0.3" stroke-width="0.3"/>
<line x1="277.15" y1="9" x2="277.15" y2="193" stroke="#08B6F0" stroke-opacity="0.3" stroke-width="0.3"/>
<line x1="272.15" y1="9" x2="272.15" y2="193" stroke="#08B6F0" stroke-opacity="0.3" stroke-width="0.3"/>
<line x1="267.15" y1="9" x2="267.15" y2="193" stroke="#08B6F0" stroke-opacity="0.3" stroke-width="0.3"/>
<line x1="262.15" y1="9" x2="262.15" y2="193" stroke="#08B6F0" stroke-opacity="0.3" stroke-width="0.3"/>
<line x1="257.15" y1="9" x2="257.15" y2="193" stroke="#08B6F0" stroke-opacity="0.3" stroke-width="0.3"/>
<line x1="252.15" y1="9" x2="252.15" y2="193" stroke="#08B6F0" stroke-opacity="0.3" stroke-width="0.3"/>
<line x1="247.15" y1="9" x2="247.15" y2="193" stroke="#08B6F0" stroke-opacity="0.3" stroke-width="0.3"/>
<line x1="242.15" y1="9" x2="242.15" y2="193" stroke="#08B6F0" stroke-opacity="0.3" stroke-width="0.3"/>
<line x1="237.15" y1="9" x2="237.15" y2="193" stroke="#08B6F0" stroke-opacity="0.3" stroke-width="0.3"/>
<line x1="232.15" y1="9" x2="232.15" y2="193" stroke="#08B6F0" stroke-opacity="0.3" stroke-width="0.3"/>
<line x1="202" y1="13.85" x2="387" y2="13.85" stroke="#08B6F0" stroke-opacity="0.3" stroke-width="0.3"/>
<line x1="202" y1="18.85" x2="387" y2="18.85" stroke="#08B6F0" stroke-opacity="0.3" stroke-width="0.3"/>
<line x1="202" y1="43.85" x2="387" y2="43.85" stroke="#08B6F0" stroke-opacity="0.3" stroke-width="0.3"/>
<line x1="202" y1="68.85" x2="387" y2="68.85" stroke="#08B6F0" stroke-opacity="0.3" stroke-width="0.3"/>
<line x1="202" y1="83.85" x2="387" y2="83.85" stroke="#08B6F0" stroke-opacity="0.3" stroke-width="0.3"/>
<line x1="202" y1="108.85" x2="387" y2="108.85" stroke="#08B6F0" stroke-opacity="0.3" stroke-width="0.3"/>
<line x1="202" y1="123.85" x2="387" y2="123.85" stroke="#08B6F0" stroke-opacity="0.3" stroke-width="0.3"/>
<line x1="202" y1="148.85" x2="387" y2="148.85" stroke="#08B6F0" stroke-opacity="0.3" stroke-width="0.3"/>
<line x1="202" y1="173.85" x2="387" y2="173.85" stroke="#08B6F0" stroke-opacity="0.3" stroke-width="0.3"/>
<line x1="202" y1="178.85" x2="387" y2="178.85" stroke="#08B6F0" stroke-opacity="0.3" stroke-width="0.3"/>
<line x1="202" y1="183.85" x2="387" y2="183.85" stroke="#08B6F0" stroke-opacity="0.3" stroke-width="0.3"/>
<line x1="202" y1="188.85" x2="387" y2="188.85" stroke="#08B6F0" stroke-opacity="0.3" stroke-width="0.3"/>
<line x1="202" y1="168.85" x2="387" y2="168.85" stroke="#08B6F0" stroke-opacity="0.3" stroke-width="0.3"/>
<line x1="202" y1="153.85" x2="387" y2="153.85" stroke="#08B6F0" stroke-opacity="0.3" stroke-width="0.3"/>
<line x1="202" y1="158.85" x2="387" y2="158.85" stroke="#08B6F0" stroke-opacity="0.3" stroke-width="0.3"/>
<line x1="202" y1="163.85" x2="387" y2="163.85" stroke="#08B6F0" stroke-opacity="0.3" stroke-width="0.3"/>
<line x1="202" y1="143.85" x2="387" y2="143.85" stroke="#08B6F0" stroke-opacity="0.3" stroke-width="0.3"/>
<line x1="202" y1="138.85" x2="387" y2="138.85" stroke="#08B6F0" stroke-opacity="0.3" stroke-width="0.3"/>
<line x1="202" y1="133.85" x2="387" y2="133.85" stroke="#08B6F0" stroke-opacity="0.3" stroke-width="0.3"/>
<line x1="202" y1="128.85" x2="387" y2="128.85" stroke="#08B6F0" stroke-opacity="0.3" stroke-width="0.3"/>
<line x1="202" y1="118.85" x2="387" y2="118.85" stroke="#08B6F0" stroke-opacity="0.3" stroke-width="0.3"/>
<line x1="202" y1="113.85" x2="387" y2="113.85" stroke="#08B6F0" stroke-opacity="0.3" stroke-width="0.3"/>
<line x1="202" y1="103.85" x2="387" y2="103.85" stroke="#08B6F0" stroke-opacity="0.3" stroke-width="0.3"/>
<line x1="202" y1="98.85" x2="387" y2="98.85" stroke="#08B6F0" stroke-opacity="0.3" stroke-width="0.3"/>
<line x1="202" y1="93.85" x2="387" y2="93.85" stroke="#08B6F0" stroke-opacity="0.3" stroke-width="0.3"/>
<line x1="202" y1="88.85" x2="387" y2="88.85" stroke="#08B6F0" stroke-opacity="0.3" stroke-width="0.3"/>
<line x1="202" y1="78.85" x2="387" y2="78.85" stroke="#08B6F0" stroke-opacity="0.3" stroke-width="0.3"/>
<line x1="202" y1="73.85" x2="387" y2="73.85" stroke="#08B6F0" stroke-opacity="0.3" stroke-width="0.3"/>
<line x1="202" y1="63.85" x2="387" y2="63.85" stroke="#08B6F0" stroke-opacity="0.3" stroke-width="0.3"/>
<line x1="202" y1="58.85" x2="387" y2="58.85" stroke="#08B6F0" stroke-opacity="0.3" stroke-width="0.3"/>
<line x1="202" y1="53.85" x2="387" y2="53.85" stroke="#08B6F0" stroke-opacity="0.3" stroke-width="0.3"/>
<line x1="202" y1="48.85" x2="387" y2="48.85" stroke="#08B6F0" stroke-opacity="0.3" stroke-width="0.3"/>
<line x1="202" y1="38.85" x2="387" y2="38.85" stroke="#08B6F0" stroke-opacity="0.3" stroke-width="0.3"/>
<line x1="202" y1="33.85" x2="387" y2="33.85" stroke="#08B6F0" stroke-opacity="0.3" stroke-width="0.3"/>
<line x1="202" y1="28.85" x2="387" y2="28.85" stroke="#08B6F0" stroke-opacity="0.3" stroke-width="0.3"/>
<line x1="202" y1="23.85" x2="387" y2="23.85" stroke="#08B6F0" stroke-opacity="0.3" stroke-width="0.3"/>
<rect x="17.15" y="9.15" width="369.7" height="183.7" stroke="#08B6F0" stroke-opacity="0.3" stroke-width="0.3"/>
<path d="M392.619 106L396.843 96.544H391.323V94.8H398.955V96.256L394.747 106H392.619ZM403.986 106.192C403.25 106.192 402.584 106.064 401.986 105.808C401.389 105.541 400.909 105.136 400.546 104.592C400.184 104.048 399.992 103.365 399.97 102.544H401.986C401.997 103.088 402.173 103.547 402.514 103.92C402.866 104.283 403.357 104.464 403.986 104.464C404.584 104.464 405.042 104.299 405.362 103.968C405.682 103.637 405.842 103.221 405.842 102.72C405.842 102.133 405.629 101.691 405.202 101.392C404.786 101.083 404.248 100.928 403.586 100.928H402.754V99.248H403.602C404.146 99.248 404.6 99.12 404.962 98.864C405.325 98.608 405.506 98.2293 405.506 97.728C405.506 97.312 405.368 96.9813 405.09 96.736C404.824 96.48 404.45 96.352 403.97 96.352C403.448 96.352 403.037 96.5067 402.738 96.816C402.45 97.1253 402.29 97.504 402.258 97.952H400.258C400.301 96.9173 400.658 96.1013 401.33 95.504C402.013 94.9067 402.893 94.608 403.97 94.608C404.738 94.608 405.384 94.7467 405.906 95.024C406.44 95.2907 406.84 95.648 407.106 96.096C407.384 96.544 407.522 97.04 407.522 97.584C407.522 98.2133 407.346 98.7467 406.994 99.184C406.653 99.6107 406.226 99.8987 405.714 100.048C406.344 100.176 406.856 100.485 407.25 100.976C407.645 101.456 407.842 102.064 407.842 102.8C407.842 103.419 407.693 103.984 407.394 104.496C407.096 105.008 406.658 105.419 406.082 105.728C405.517 106.037 404.818 106.192 403.986 106.192ZM414.446 106.192C413.411 106.192 412.526 105.952 411.79 105.472C411.054 104.981 410.483 104.304 410.078 103.44C409.683 102.565 409.486 101.552 409.486 100.4C409.486 99.2587 409.683 98.2507 410.078 97.376C410.483 96.5013 411.054 95.824 411.79 95.344C412.526 94.8533 413.411 94.608 414.446 94.608C415.48 94.608 416.366 94.8533 417.102 95.344C417.838 95.824 418.403 96.5013 418.798 97.376C419.203 98.2507 419.406 99.2587 419.406 100.4C419.406 101.552 419.203 102.565 418.798 103.44C418.403 104.304 417.838 104.981 417.102 105.472C416.366 105.952 415.48 106.192 414.446 106.192ZM414.446 104.352C415.288 104.352 415.976 104 416.51 103.296C417.043 102.592 417.31 101.627 417.31 100.4C417.31 99.1733 417.043 98.208 416.51 97.504C415.976 96.8 415.288 96.448 414.446 96.448C413.592 96.448 412.899 96.8 412.366 97.504C411.843 98.208 411.582 99.1733 411.582 100.4C411.582 101.627 411.843 102.592 412.366 103.296C412.899 104 413.592 104.352 414.446 104.352ZM421.165 109.52V98.064H422.989L423.213 99.2C423.469 98.848 423.805 98.5387 424.221 98.272C424.648 98.0053 425.197 97.872 425.869 97.872C426.616 97.872 427.282 98.0533 427.869 98.416C428.456 98.7787 428.92 99.2747 429.261 99.904C429.602 100.533 429.773 101.248 429.773 102.048C429.773 102.848 429.602 103.563 429.261 104.192C428.92 104.811 428.456 105.301 427.869 105.664C427.282 106.016 426.616 106.192 425.869 106.192C425.272 106.192 424.749 106.08 424.301 105.856C423.853 105.632 423.49 105.317 423.213 104.912V109.52H421.165ZM425.437 104.4C426.088 104.4 426.626 104.181 427.053 103.744C427.48 103.307 427.693 102.741 427.693 102.048C427.693 101.355 427.48 100.784 427.053 100.336C426.626 99.888 426.088 99.664 425.437 99.664C424.776 99.664 424.232 99.888 423.805 100.336C423.389 100.773 423.181 101.339 423.181 102.032C423.181 102.725 423.389 103.296 423.805 103.744C424.232 104.181 424.776 104.4 425.437 104.4ZM430.429 106L433.309 102.032L430.429 98.064H432.621L434.637 100.88L436.637 98.064H438.845L435.949 102.032L438.845 106H436.637L434.637 103.184L432.621 106H430.429Z" fill="#08B6F0"/>
<circle cx="386.5" cy="7.5" r="2.5" fill="#08B6F0"/>
<circle cx="386.5" cy="193.5" r="2.5" fill="#08B6F0"/>
<line x1="386.5" y1="6" x2="386.5" y2="191" stroke="#08B6F0"/>
<path d="M180.898 214V205.136L179.058 205.568V204L181.762 202.8H183.026V214H180.898ZM186.413 214V205.136L184.573 205.568V204L187.277 202.8H188.541V214H186.413ZM191.353 214L195.577 204.544H190.057V202.8H197.689V204.256L193.481 214H191.353ZM203.743 214.192C202.708 214.192 201.823 213.952 201.087 213.472C200.351 212.981 199.78 212.304 199.375 211.44C198.98 210.565 198.783 209.552 198.783 208.4C198.783 207.259 198.98 206.251 199.375 205.376C199.78 204.501 200.351 203.824 201.087 203.344C201.823 202.853 202.708 202.608 203.743 202.608C204.777 202.608 205.663 202.853 206.399 203.344C207.135 203.824 207.7 204.501 208.095 205.376C208.5 206.251 208.703 207.259 208.703 208.4C208.703 209.552 208.5 210.565 208.095 211.44C207.7 212.304 207.135 212.981 206.399 213.472C205.663 213.952 204.777 214.192 203.743 214.192ZM203.743 212.352C204.585 212.352 205.273 212 205.807 211.296C206.34 210.592 206.607 209.627 206.607 208.4C206.607 207.173 206.34 206.208 205.807 205.504C205.273 204.8 204.585 204.448 203.743 204.448C202.889 204.448 202.196 204.8 201.663 205.504C201.14 206.208 200.879 207.173 200.879 208.4C200.879 209.627 201.14 210.592 201.663 211.296C202.196 212 202.889 212.352 203.743 212.352ZM210.462 217.52V206.064H212.286L212.51 207.2C212.766 206.848 213.102 206.539 213.518 206.272C213.945 206.005 214.494 205.872 215.166 205.872C215.913 205.872 216.579 206.053 217.166 206.416C217.753 206.779 218.217 207.275 218.558 207.904C218.899 208.533 219.07 209.248 219.07 210.048C219.07 210.848 218.899 211.563 218.558 212.192C218.217 212.811 217.753 213.301 217.166 213.664C216.579 214.016 215.913 214.192 215.166 214.192C214.569 214.192 214.046 214.08 213.598 213.856C213.15 213.632 212.787 213.317 212.51 212.912V217.52H210.462ZM214.734 212.4C215.385 212.4 215.923 212.181 216.35 211.744C216.777 211.307 216.99 210.741 216.99 210.048C216.99 209.355 216.777 208.784 216.35 208.336C215.923 207.888 215.385 207.664 214.734 207.664C214.073 207.664 213.529 207.888 213.102 208.336C212.686 208.773 212.478 209.339 212.478 210.032C212.478 210.725 212.686 211.296 213.102 211.744C213.529 212.181 214.073 212.4 214.734 212.4ZM219.726 214L222.606 210.032L219.726 206.064H221.918L223.934 208.88L225.934 206.064H228.142L225.246 210.032L228.142 214H225.934L223.934 211.184L221.918 214H219.726Z" fill="#08B6F0"/>
<circle cx="15.5" cy="193.5" r="2.5" transform="rotate(90 15.5 193.5)" fill="#08B6F0"/>
<line x1="18" y1="193.5" x2="384" y2="193.5" stroke="#08B6F0"/>
<rect x="42" y="34" width="135" height="24" transform="rotate(90 42 34)" fill="#08B6F0" fill-opacity="0.16"/>
<rect x="386" y="34" width="135" height="24" transform="rotate(90 386 34)" fill="#08B6F0" fill-opacity="0.16"/>
<rect x="18" y="10" width="368" height="23.9999" fill="#08B6F0" fill-opacity="0.16"/>
<rect x="18" y="169" width="368" height="23.9999" fill="#08B6F0" fill-opacity="0.16"/>
<path d="M48.3578 26V18.244L46.7478 18.622V17.25L49.1138 16.2H50.2198V26H48.3578ZM56.138 26.168C55.2326 26.168 54.458 25.958 53.814 25.538C53.17 25.1087 52.6706 24.516 52.316 23.76C51.9706 22.9947 51.798 22.108 51.798 21.1C51.798 20.1013 51.9706 19.2193 52.316 18.454C52.6706 17.6887 53.17 17.096 53.814 16.676C54.458 16.2467 55.2326 16.032 56.138 16.032C57.0433 16.032 57.818 16.2467 58.462 16.676C59.106 17.096 59.6006 17.6887 59.946 18.454C60.3006 19.2193 60.478 20.1013 60.478 21.1C60.478 22.108 60.3006 22.9947 59.946 23.76C59.6006 24.516 59.106 25.1087 58.462 25.538C57.818 25.958 57.0433 26.168 56.138 26.168ZM56.138 24.558C56.8753 24.558 57.4773 24.25 57.944 23.634C58.4106 23.018 58.644 22.1733 58.644 21.1C58.644 20.0267 58.4106 19.182 57.944 18.566C57.4773 17.95 56.8753 17.642 56.138 17.642C55.3913 17.642 54.7846 17.95 54.318 18.566C53.8606 19.182 53.632 20.0267 53.632 21.1C53.632 22.1733 53.8606 23.018 54.318 23.634C54.7846 24.25 55.3913 24.558 56.138 24.558ZM66.0774 26.168C65.1721 26.168 64.3974 25.958 63.7534 25.538C63.1094 25.1087 62.6101 24.516 62.2554 23.76C61.9101 22.9947 61.7374 22.108 61.7374 21.1C61.7374 20.1013 61.9101 19.2193 62.2554 18.454C62.6101 17.6887 63.1094 17.096 63.7534 16.676C64.3974 16.2467 65.1721 16.032 66.0774 16.032C66.9828 16.032 67.7574 16.2467 68.4014 16.676C69.0454 17.096 69.5401 17.6887 69.8854 18.454C70.2401 19.2193 70.4174 20.1013 70.4174 21.1C70.4174 22.108 70.2401 22.9947 69.8854 23.76C69.5401 24.516 69.0454 25.1087 68.4014 25.538C67.7574 25.958 66.9828 26.168 66.0774 26.168ZM66.0774 24.558C66.8148 24.558 67.4168 24.25 67.8834 23.634C68.3501 23.018 68.5834 22.1733 68.5834 21.1C68.5834 20.0267 68.3501 19.182 67.8834 18.566C67.4168 17.95 66.8148 17.642 66.0774 17.642C65.3308 17.642 64.7241 17.95 64.2574 18.566C63.8001 19.182 63.5714 20.0267 63.5714 21.1C63.5714 22.1733 63.8001 23.018 64.2574 23.634C64.7241 24.25 65.3308 24.558 66.0774 24.558ZM71.9569 29.08V19.056H73.5529L73.7489 20.05C73.9729 19.742 74.2669 19.4713 74.6309 19.238C75.0042 19.0047 75.4849 18.888 76.0729 18.888C76.7262 18.888 77.3095 19.0467 77.8229 19.364C78.3362 19.6813 78.7422 20.1153 79.0409 20.666C79.3395 21.2167 79.4889 21.842 79.4889 22.542C79.4889 23.242 79.3395 23.8673 79.0409 24.418C78.7422 24.9593 78.3362 25.3887 77.8229 25.706C77.3095 26.014 76.7262 26.168 76.0729 26.168C75.5502 26.168 75.0929 26.07 74.7009 25.874C74.3089 25.678 73.9915 25.4027 73.7489 25.048V29.08H71.9569ZM75.6949 24.6C76.2642 24.6 76.7355 24.4087 77.1089 24.026C77.4822 23.6433 77.6689 23.1487 77.6689 22.542C77.6689 21.9353 77.4822 21.436 77.1089 21.044C76.7355 20.652 76.2642 20.456 75.6949 20.456C75.1162 20.456 74.6402 20.652 74.2669 21.044C73.9029 21.4267 73.7209 21.9213 73.7209 22.528C73.7209 23.1347 73.9029 23.634 74.2669 24.026C74.6402 24.4087 75.1162 24.6 75.6949 24.6ZM80.0625 26L82.5825 22.528L80.0625 19.056H81.9805L83.7445 21.52L85.4945 19.056H87.4265L84.8925 22.528L87.4265 26H85.4945L83.7445 23.536L81.9805 26H80.0625Z" fill="#08B6F0"/>
<circle cx="42.5" cy="34.5" r="2.5" fill="#08B6F0"/>
<circle cx="42.5" cy="7.5" r="2.5" fill="#08B6F0"/>
<line x1="42.5" y1="34" x2="42.5" y2="9" stroke="#08B6F0"/>
<path d="M10.8578 161V153.244L9.2478 153.622V152.25L11.6138 151.2H12.7198V161H10.8578ZM18.638 161.168C17.7326 161.168 16.958 160.958 16.314 160.538C15.67 160.109 15.1706 159.516 14.816 158.76C14.4706 157.995 14.298 157.108 14.298 156.1C14.298 155.101 14.4706 154.219 14.816 153.454C15.1706 152.689 15.67 152.096 16.314 151.676C16.958 151.247 17.7326 151.032 18.638 151.032C19.5433 151.032 20.318 151.247 20.962 151.676C21.606 152.096 22.1006 152.689 22.446 153.454C22.8006 154.219 22.978 155.101 22.978 156.1C22.978 157.108 22.8006 157.995 22.446 158.76C22.1006 159.516 21.606 160.109 20.962 160.538C20.318 160.958 19.5433 161.168 18.638 161.168ZM18.638 159.558C19.3753 159.558 19.9773 159.25 20.444 158.634C20.9106 158.018 21.144 157.173 21.144 156.1C21.144 155.027 20.9106 154.182 20.444 153.566C19.9773 152.95 19.3753 152.642 18.638 152.642C17.8913 152.642 17.2846 152.95 16.818 153.566C16.3606 154.182 16.132 155.027 16.132 156.1C16.132 157.173 16.3606 158.018 16.818 158.634C17.2846 159.25 17.8913 159.558 18.638 159.558ZM28.5774 161.168C27.6721 161.168 26.8974 160.958 26.2534 160.538C25.6094 160.109 25.1101 159.516 24.7554 158.76C24.4101 157.995 24.2374 157.108 24.2374 156.1C24.2374 155.101 24.4101 154.219 24.7554 153.454C25.1101 152.689 25.6094 152.096 26.2534 151.676C26.8974 151.247 27.6721 151.032 28.5774 151.032C29.4828 151.032 30.2574 151.247 30.9014 151.676C31.5454 152.096 32.0401 152.689 32.3854 153.454C32.7401 154.219 32.9174 155.101 32.9174 156.1C32.9174 157.108 32.7401 157.995 32.3854 158.76C32.0401 159.516 31.5454 160.109 30.9014 160.538C30.2574 160.958 29.4828 161.168 28.5774 161.168ZM28.5774 159.558C29.3148 159.558 29.9168 159.25 30.3834 158.634C30.8501 158.018 31.0834 157.173 31.0834 156.1C31.0834 155.027 30.8501 154.182 30.3834 153.566C29.9168 152.95 29.3148 152.642 28.5774 152.642C27.8308 152.642 27.2241 152.95 26.7574 153.566C26.3001 154.182 26.0714 155.027 26.0714 156.1C26.0714 157.173 26.3001 158.018 26.7574 158.634C27.2241 159.25 27.8308 159.558 28.5774 159.558ZM34.4569 164.08V154.056H36.0529L36.2489 155.05C36.4729 154.742 36.7669 154.471 37.1309 154.238C37.5042 154.005 37.9849 153.888 38.5729 153.888C39.2262 153.888 39.8095 154.047 40.3229 154.364C40.8362 154.681 41.2422 155.115 41.5409 155.666C41.8395 156.217 41.9889 156.842 41.9889 157.542C41.9889 158.242 41.8395 158.867 41.5409 159.418C41.2422 159.959 40.8362 160.389 40.3229 160.706C39.8095 161.014 39.2262 161.168 38.5729 161.168C38.0502 161.168 37.5929 161.07 37.2009 160.874C36.8089 160.678 36.4915 160.403 36.2489 160.048V164.08H34.4569ZM38.1949 159.6C38.7642 159.6 39.2355 159.409 39.6089 159.026C39.9822 158.643 40.1689 158.149 40.1689 157.542C40.1689 156.935 39.9822 156.436 39.6089 156.044C39.2355 155.652 38.7642 155.456 38.1949 155.456C37.6162 155.456 37.1402 155.652 36.7669 156.044C36.4029 156.427 36.2209 156.921 36.2209 157.528C36.2209 158.135 36.4029 158.634 36.7669 159.026C37.1402 159.409 37.6162 159.6 38.1949 159.6ZM42.5625 161L45.0825 157.528L42.5625 154.056H44.4805L46.2445 156.52L47.9945 154.056H49.9265L47.3925 157.528L49.9265 161H47.9945L46.2445 158.536L44.4805 161H42.5625Z" fill="#08B6F0"/>
<circle cx="42.5" cy="168.5" r="2.5" fill="#08B6F0"/>
<circle cx="17.5" cy="168.5" r="2.5" fill="#08B6F0"/>
<line x1="41" y1="168.5" x2="18" y2="168.5" stroke="#08B6F0"/>
<rect x="361" y="55" width="92" height="318" rx="10" transform="rotate(90 361 55)" fill="#9334E6" fill-opacity="0.62"/>
<path d="M148.83 113V105.53L141.78 92H146.13L150.78 101.69L155.4 92H159.69L152.67 105.53V113H148.83ZM166.534 113.36C165.094 113.36 163.794 113.03 162.634 112.37C161.494 111.71 160.584 110.8 159.904 109.64C159.244 108.46 158.914 107.1 158.914 105.56C158.914 104.02 159.254 102.67 159.934 101.51C160.614 100.33 161.524 99.41 162.664 98.75C163.824 98.09 165.124 97.76 166.564 97.76C167.984 97.76 169.264 98.09 170.404 98.75C171.564 99.41 172.474 100.33 173.134 101.51C173.814 102.67 174.154 104.02 174.154 105.56C174.154 107.1 173.814 108.46 173.134 109.64C172.474 110.8 171.564 111.71 170.404 112.37C169.244 113.03 167.954 113.36 166.534 113.36ZM166.534 110.03C167.534 110.03 168.404 109.66 169.144 108.92C169.884 108.16 170.254 107.04 170.254 105.56C170.254 104.08 169.884 102.97 169.144 102.23C168.404 101.47 167.544 101.09 166.564 101.09C165.544 101.09 164.664 101.47 163.924 102.23C163.204 102.97 162.844 104.08 162.844 105.56C162.844 107.04 163.204 108.16 163.924 108.92C164.664 109.66 165.534 110.03 166.534 110.03ZM183.168 113.36C181.308 113.36 179.868 112.78 178.848 111.62C177.848 110.46 177.348 108.76 177.348 106.52V98.12H181.158V106.16C181.158 107.44 181.418 108.42 181.938 109.1C182.458 109.78 183.278 110.12 184.398 110.12C185.458 110.12 186.328 109.74 187.008 108.98C187.708 108.22 188.058 107.16 188.058 105.8V98.12H191.898V113H188.508L188.208 110.48C187.748 111.36 187.078 112.06 186.198 112.58C185.338 113.1 184.328 113.36 183.168 113.36ZM195.84 113V98.12H199.26L199.62 100.91C200.16 99.95 200.89 99.19 201.81 98.63C202.75 98.05 203.85 97.76 205.11 97.76V101.81H204.03C203.19 101.81 202.44 101.94 201.78 102.2C201.12 102.46 200.6 102.91 200.22 103.55C199.86 104.19 199.68 105.08 199.68 106.22V113H195.84ZM214.883 113V91.4H218.723V113H214.883ZM229.786 113.36C228.346 113.36 227.046 113.03 225.886 112.37C224.746 111.71 223.836 110.8 223.156 109.64C222.496 108.46 222.166 107.1 222.166 105.56C222.166 104.02 222.506 102.67 223.186 101.51C223.866 100.33 224.776 99.41 225.916 98.75C227.076 98.09 228.376 97.76 229.816 97.76C231.236 97.76 232.516 98.09 233.656 98.75C234.816 99.41 235.726 100.33 236.386 101.51C237.066 102.67 237.406 104.02 237.406 105.56C237.406 107.1 237.066 108.46 236.386 109.64C235.726 110.8 234.816 111.71 233.656 112.37C232.496 113.03 231.206 113.36 229.786 113.36ZM229.786 110.03C230.786 110.03 231.656 109.66 232.396 108.92C233.136 108.16 233.506 107.04 233.506 105.56C233.506 104.08 233.136 102.97 232.396 102.23C231.656 101.47 230.796 101.09 229.816 101.09C228.796 101.09 227.916 101.47 227.176 102.23C226.456 102.97 226.096 104.08 226.096 105.56C226.096 107.04 226.456 108.16 227.176 108.92C227.916 109.66 228.786 110.03 229.786 110.03ZM246.202 108.56C245.482 108.56 244.812 108.48 244.192 108.32L243.082 109.43C243.422 109.61 243.882 109.76 244.462 109.88C245.042 110 245.982 110.12 247.282 110.24C249.262 110.42 250.702 110.89 251.602 111.65C252.502 112.41 252.952 113.46 252.952 114.8C252.952 115.68 252.712 116.51 252.232 117.29C251.752 118.09 251.012 118.73 250.012 119.21C249.012 119.71 247.732 119.96 246.172 119.96C244.052 119.96 242.342 119.56 241.042 118.76C239.742 117.98 239.092 116.8 239.092 115.22C239.092 113.88 239.742 112.72 241.042 111.74C240.642 111.56 240.292 111.37 239.992 111.17C239.712 110.97 239.462 110.76 239.242 110.54V109.85L241.852 107.09C240.692 106.07 240.112 104.76 240.112 103.16C240.112 102.16 240.352 101.25 240.832 100.43C241.332 99.61 242.032 98.96 242.932 98.48C243.832 98 244.922 97.76 246.202 97.76C247.042 97.76 247.822 97.88 248.542 98.12H254.182V100.46L251.632 100.64C252.032 101.4 252.232 102.24 252.232 103.16C252.232 104.16 251.992 105.07 251.512 105.89C251.032 106.71 250.332 107.36 249.412 107.84C248.512 108.32 247.442 108.56 246.202 108.56ZM246.202 105.62C246.982 105.62 247.622 105.41 248.122 104.99C248.642 104.57 248.902 103.97 248.902 103.19C248.902 102.41 248.642 101.81 248.122 101.39C247.622 100.97 246.982 100.76 246.202 100.76C245.382 100.76 244.722 100.97 244.222 101.39C243.722 101.81 243.472 102.41 243.472 103.19C243.472 103.97 243.722 104.57 244.222 104.99C244.722 105.41 245.382 105.62 246.202 105.62ZM242.602 114.83C242.602 115.57 242.942 116.12 243.622 116.48C244.322 116.86 245.172 117.05 246.172 117.05C247.132 117.05 247.912 116.85 248.512 116.45C249.112 116.07 249.412 115.55 249.412 114.89C249.412 114.35 249.212 113.9 248.812 113.54C248.432 113.18 247.662 112.96 246.502 112.88C245.682 112.82 244.922 112.73 244.222 112.61C243.642 112.93 243.222 113.28 242.962 113.66C242.722 114.04 242.602 114.43 242.602 114.83ZM263.536 113.36C262.096 113.36 260.796 113.03 259.636 112.37C258.496 111.71 257.586 110.8 256.906 109.64C256.246 108.46 255.916 107.1 255.916 105.56C255.916 104.02 256.256 102.67 256.936 101.51C257.616 100.33 258.526 99.41 259.666 98.75C260.826 98.09 262.126 97.76 263.566 97.76C264.986 97.76 266.266 98.09 267.406 98.75C268.566 99.41 269.476 100.33 270.136 101.51C270.816 102.67 271.156 104.02 271.156 105.56C271.156 107.1 270.816 108.46 270.136 109.64C269.476 110.8 268.566 111.71 267.406 112.37C266.246 113.03 264.956 113.36 263.536 113.36ZM263.536 110.03C264.536 110.03 265.406 109.66 266.146 108.92C266.886 108.16 267.256 107.04 267.256 105.56C267.256 104.08 266.886 102.97 266.146 102.23C265.406 101.47 264.546 101.09 263.566 101.09C262.546 101.09 261.666 101.47 260.926 102.23C260.206 102.97 259.846 104.08 259.846 105.56C259.846 107.04 260.206 108.16 260.926 108.92C261.666 109.66 262.536 110.03 263.536 110.03Z" fill="white"/>
</g>
<defs>
<clipPath id="clip0">
<rect width="440" height="221" fill="white"/>
</clipPath>
</defs>
</svg>
